<?xml version="1.0" standalone="no"?><!DOCTYPE svg PUBLIC "-//W3C//DTD SVG 1.1//EN" "http://www.w3.org/Graphics/SVG/1.1/DTD/svg11.dtd"><svg t="1686068004238" class="icon" viewBox="0 0 1024 1024" version="1.1" xmlns="http://www.w3.org/2000/svg" p-id="4459" xmlns:xlink="http://www.w3.org/1999/xlink" width="200" height="200"><path d="M513 927.9c-228.8 0-415-186.2-415-415s186.2-415 415-415 415 186.2 415 415-186.2 415-415 415z m0-773.2c-197.5 0-358.1 160.7-358.1 358.1S315.5 871 513 871s358.1-160.7 358.1-358.1S710.5 154.7 513 154.7z" fill="#3468F7" p-id="4460"></path><path d="M533.1 486.2C500 470 471.3 456 471.3 423.5c0-28.7 19.5-47.3 49.7-47.3 27.4 0 42.5 9.8 62.2 29l3.5 3.4 29.9-32.9-3-3.2c-16.8-17.6-38.8-36.2-74.8-41.4v-54h-41.3v55.1c-47.8 8.6-78.5 44.7-78.5 93.1 0 57.8 44.1 80.2 83.1 100 34.8 17.7 67.7 34.4 67.7 73.4 0 32.7-19.9 50.6-55.9 50.6-26.8 0-52.9-11.1-79.8-34l-4-3.4-26 37.6 3 2.8c24 22 58.3 37.9 90.4 42.1v54h41.3v-55.1c51.5-8.9 83.3-45.9 83.3-97.5-0.1-66.2-47.3-89.2-89-109.6z" fill="#3468F7" p-id="4461"></path></svg>